<svg xmlns="http://www.w3.org/2000/svg" width="256" height="256" fill="none" viewBox="0 0 256 256"><rect width="256" height="256" fill="#F4F2ED" rx="60"/><path fill="#FBC707" d="M128 60.5006L76.7392 54.8235L38 37.9999H82.9984L128 60.5037"/><path fill="#FBC707" d="M128 60.5006L180.435 55.9974L218 37.9999H172.998L128 60.5037"/><path fill="#F68712" d="M128 195.502L176.913 197.263L218 218.003H172.998L128 195.498"/><path fill="#F25C19" d="M128 195.502H78.6957L38 218.002H82.9984L128 195.498"/><path fill="#FFF200" d="M60.4992 128.002V175.349L38 218.002V173.003L60.4992 128.001"/><path fill="#FFF200" d="M60.4992 128.002L56.7825 81.0417L38 37.9999V82.9994L60.4992 128.001"/><path fill="#F1471D" d="M195.497 128.002L200.391 78.6938L218 37.9999V82.9994L195.497 128.001"/><path fill="#F1471D" d="M195.497 128.002L199.609 180.827L218 218.002V173.003L195.497 128.001"/><path fill="#FAB20B" d="M38 37.9999L128 60.5006L113.522 117.825L60.4992 128.002L38 38.0046"/><path fill="#F47216" d="M218 37.9999L195.497 128.002L135.043 117.04L128 60.4979L218 38.0046"/><path fill="#F25C19" d="M218 218.002L128 195.502L138.174 135.83L195.497 128.006L218 217.997"/><path fill="#F89C0E" d="M38 218.002L60.4992 128.002L114.696 140.13L128 195.502L38 217.997"/><path fill="#F68712" d="M128 60.5008L60.4992 128.002L128 195.502L195.497 128.002L128 60.5038"/></svg>