<svg xmlns="http://www.w3.org/2000/svg" width="256" height="256" fill="none" viewBox="0 0 256 256"><rect width="256" height="256" fill="#242938" rx="60"/><path fill="url(#paint0_linear_107_922)" d="M79.4225 40.5967L102.985 83.1058L81.346 122.056C80.3101 123.917 79.7664 126.01 79.7664 128.139C79.7664 130.269 80.3101 132.362 81.346 134.222L102.985 173.269L79.4225 215.778C74.9888 213.58 71.307 210.116 68.8433 205.824L31.3353 140.666C29.15 136.862 28 132.551 28 128.164C28 123.776 29.15 119.465 31.3353 115.661L68.8433 50.5026C71.3145 46.2287 74.9955 42.7819 79.4225 40.5967V40.5967Z"/><path fill="url(#paint1_linear_107_922)" d="M81.346 122.104C80.3187 123.959 79.7797 126.044 79.7797 128.163C79.7797 130.283 80.3187 132.368 81.346 134.222L102.985 173.269L79.4225 215.778C74.9888 213.58 71.307 210.116 68.8433 205.824L31.3353 140.666C28.3539 135.521 45.0401 129.366 81.346 122.153V122.104Z" opacity=".7"/><path fill="url(#paint2_linear_107_922)" d="M81.8269 44.8764L102.985 83.1058L99.4749 89.2129L80.8171 57.6196C75.4313 48.8196 67.2084 53.3879 56.9177 71.1802L58.4565 68.5354L68.8434 50.5026C71.2889 46.2427 74.9349 42.7974 79.3264 40.5967L81.7788 44.8764H81.8269Z" opacity=".5"/><path fill="url(#paint3_linear_107_922)" d="M187.138 50.5027L224.646 115.661C229.118 123.355 229.118 132.972 224.646 140.666L187.138 205.824C184.945 209.623 181.79 212.778 177.992 214.973C174.194 217.168 169.885 218.324 165.499 218.327H127.991L174.635 134.223C175.662 132.368 176.201 130.283 176.201 128.164C176.201 126.044 175.662 123.959 174.635 122.105L127.991 38H165.499C169.885 38.0028 174.194 39.1595 177.992 41.3541C181.79 43.5486 184.945 46.7037 187.138 50.5027V50.5027Z"/><path fill="url(#paint4_linear_107_922)" d="M163.575 218.039L126.548 218.375L171.365 133.838C172.367 131.958 172.891 129.861 172.891 127.731C172.891 125.601 172.367 123.503 171.365 121.624L126.548 38H135.011L182.041 121.239C183.155 123.205 183.737 125.429 183.728 127.689C183.72 129.949 183.122 132.168 181.993 134.126C171.871 151.718 161.821 169.35 151.842 187.022C142.705 203.083 146.648 213.422 163.575 218.039V218.039Z"/><path fill="url(#paint5_linear_107_922)" d="M90.4825 218.327C86.6356 218.327 82.7886 217.413 79.4225 215.778L125.682 132.347C127.125 129.75 127.125 126.577 125.682 123.98L79.4225 40.5967C82.8611 38.894 86.6455 38.0055 90.4825 38H127.991L174.635 122.105C175.662 123.959 176.201 126.044 176.201 128.164C176.201 130.283 175.662 132.368 174.635 134.223L127.991 218.327H90.4825Z"/><path fill="url(#paint6_linear_107_922)" d="M171.365 123.98L123.663 38H127.991L174.635 122.105C175.662 123.959 176.201 126.044 176.201 128.164C176.201 130.283 175.662 132.368 174.635 134.223L127.991 218.327H123.663L171.365 132.347C172.808 129.75 172.808 126.577 171.365 123.98V123.98Z" opacity=".6"/><path fill="url(#paint7_linear_107_922)" d="M125.682 123.98L79.4225 40.5968C80.8651 39.8275 82.5962 39.2504 84.2312 38.7695C94.4257 57.0908 109.477 84.8852 129.433 122.105C130.46 123.959 130.999 126.044 130.999 128.164C130.999 130.283 130.46 132.368 129.433 134.223L83.5099 217.365C81.8749 216.885 81.0094 216.548 79.4706 215.827L125.634 132.395C127.077 129.799 127.077 126.625 125.634 124.028L125.682 123.98Z" opacity=".6"/><defs><linearGradient id="paint0_linear_107_922" x1="65.493" x2="-11.309" y1="215.778" y2="92.263" gradientUnits="userSpaceOnUse"><stop stop-color="#EB6F07"/><stop offset="1" stop-color="#FAB743"/></linearGradient><linearGradient id="paint1_linear_107_922" x1="89.307" x2="49.763" y1="200.51" y2="159.839" gradientUnits="userSpaceOnUse"><stop stop-color="#D96504"/><stop offset="1" stop-color="#D96504" stop-opacity="0"/></linearGradient><linearGradient id="paint2_linear_107_922" x1="76.266" x2="97.2" y1="44.826" y2="78.454" gradientUnits="userSpaceOnUse"><stop stop-color="#EB6F07"/><stop offset="1" stop-color="#EB720A" stop-opacity="0"/></linearGradient><linearGradient id="paint3_linear_107_922" x1="177.995" x2="109.226" y1="218.327" y2="75.029" gradientUnits="userSpaceOnUse"><stop stop-color="#EE6F05"/><stop offset="1" stop-color="#FAB743"/></linearGradient><linearGradient id="paint4_linear_107_922" x1="107.564" x2="217.671" y1="218.375" y2="190.429" gradientUnits="userSpaceOnUse"><stop stop-color="#D96504" stop-opacity=".8"/><stop offset=".498" stop-color="#D96504" stop-opacity=".2"/><stop offset="1" stop-color="#D96504" stop-opacity="0"/></linearGradient><linearGradient id="paint5_linear_107_922" x1="127.812" x2="57.638" y1="218.327" y2="76.826" gradientUnits="userSpaceOnUse"><stop stop-color="#FFA95F"/><stop offset="1" stop-color="#FFEBC8"/></linearGradient><linearGradient id="paint6_linear_107_922" x1="127.918" x2="186.439" y1="39.984" y2="49.184" gradientUnits="userSpaceOnUse"><stop stop-color="#fff" stop-opacity=".5"/><stop offset="1" stop-color="#fff" stop-opacity=".1"/></linearGradient><linearGradient id="paint7_linear_107_922" x1="72.356" x2="144.69" y1="224.866" y2="214.211" gradientUnits="userSpaceOnUse"><stop stop-color="#fff" stop-opacity=".5"/><stop offset="1" stop-color="#fff" stop-opacity=".1"/></linearGradient></defs></svg>